<?xml version="1.0" encoding="UTF-8"?>
<svg width="50px" height="50px" viewBox="0 0 50 50" version="1.1" xmlns="http://www.w3.org/2000/svg" xmlns:xlink="http://www.w3.org/1999/xlink">
    <title>3A72FFE6-AAC9-4880-93A8-73E7CE1CD1D7</title>
    <g id="Site" stroke="none" stroke-width="1" fill="none" fill-rule="evenodd">
        <g id="11.-Documents" transform="translate(-765.000000, -720.000000)" fill="#08B09C" fill-rule="nonzero">
            <g id="Feature" transform="translate(0.000000, 490.000000)">
                <g id="Feature-/-Item-Icon-Left" transform="translate(735.000000, 220.000000)">
                    <g id="Icon" transform="translate(30.000000, 10.000000)">
                        <g id="announcement-speaker" transform="translate(4.166667, 4.166667)">
                            <path d="M43.37625,10.9609583 C42.1797917,4.57958333 38.7395833,0 34.7758333,0 C29.7652083,0 25.7266667,7.132125 25.7266667,15.991 C25.7266667,24.8497917 29.7652083,31.9820833 34.7758333,31.9820833 C38.7395833,31.9820833 42.105,27.4775 43.3014583,21.24625 C43.600625,19.5945833 43.7502083,17.8679167 43.7502083,16.0660625 C43.7502083,14.1891875 43.600625,12.5375417 43.37625,10.9609583 Z M34.7758333,20.570625 C33.504375,20.570625 32.5322917,18.5435417 32.5322917,15.991 C32.5322917,13.4384375 33.5791667,11.4114167 34.7758333,11.4114167 C36.0472917,11.4114167 37.019375,13.4384375 37.019375,15.991 C37.019375,18.4685417 35.9725,20.570625 34.7758333,20.570625 Z" id="Shape" opacity="0.501836868"></path>
                            <path d="M9.1240625,26.4270833 L22.7352083,29.4302083 L28.1945833,30.63125 C28.6433333,30.7064583 28.9425,30.2560417 28.6433333,29.880625 C26.1754167,26.8025 24.6047917,21.7725 24.6047917,15.9917083 C24.6047917,10.2109167 26.2502083,5.18089583 28.7929167,2.1028125 C29.0920833,1.80252083 28.718125,1.27697917 28.3441667,1.3520625 L8.226625,5.7815 C2.54285417,6.9826875 -1.27124583,12.913625 0.448833333,18.9195833 C1.49585417,22.6733333 4.71166667,25.45125 8.45097917,26.2770833 L9.1240625,26.4270833 Z" id="Path"></path>
                            <path d="M23.6327083,30.7808333 L11.0685208,28.003125 C10.6945833,27.928125 10.3954375,28.3785417 10.5450208,28.67875 L17.0514167,39.264375 C17.9488542,40.7658333 19.5941667,41.6666667 21.3141667,41.6666667 C23.7075,41.6666667 25.8014583,40.0152083 26.2502083,37.5377083 C26.4745833,36.2614583 26.1754167,34.985 25.5022917,33.8589583 L23.6327083,30.7808333 Z" id="Path" opacity="0.501836868"></path>
                        </g>
                    </g>
                </g>
            </g>
        </g>
    </g>
</svg>