<svg width="40" height="40" viewBox="0 0 40 40" fill="none" xmlns="http://www.w3.org/2000/svg">
<path opacity="0.5" fill-rule="evenodd" clip-rule="evenodd" d="M30.7725 8.16602H20.7498V18.1887L30.7725 8.16602ZM19.2498 8.16602H9.22716L19.2498 18.1887V8.16602ZM8.1665 9.22668V19.2493H18.1892L8.1665 9.22668ZM8.1665 20.7493V30.772L18.1892 20.7493H8.1665ZM9.22716 31.8327H19.2498V21.81L9.22716 31.8327ZM20.7498 31.8327H30.7725L20.7498 21.81V31.8327ZM31.8332 30.772V20.7493H21.8105L31.8332 30.772ZM33.3332 19.6554V8.16602V6.66602H31.8332H8.1665H6.6665V8.16602V31.8327V33.3327H8.1665H31.8332H33.3332V31.8327V20.3433C33.3864 20.2403 33.4165 20.1233 33.4165 19.9993C33.4165 19.8754 33.3864 19.7584 33.3332 19.6554ZM31.8332 19.2493H21.8105L31.8332 9.22668V19.2493Z" fill="#08B09C"/>
<circle cx="8" cy="8" r="4" fill="#08B09C"/>
<circle cx="20" cy="8" r="4" fill="#08B09C"/>
<circle cx="20" cy="20" r="4" fill="#08B09C"/>
<circle cx="8" cy="32" r="4" fill="#08B09C"/>
<circle cx="20" cy="32" r="4" fill="#08B09C"/>
<circle cx="8" cy="20" r="4" fill="#08B09C"/>
<circle cx="32" cy="8" r="4" fill="#08B09C"/>
<circle cx="32" cy="32" r="4" fill="#08B09C"/>
<circle cx="32" cy="20" r="4" fill="#08B09C"/>
</svg>
