<svg width="50" height="50" viewBox="0 0 50 50" fill="none" xmlns="http://www.w3.org/2000/svg">
<path d="M6.25005 22.9168C2.81065 22.9168 0 25.7274 0 29.1669C0 32.6064 2.81065 35.4169 6.25005 35.4169C9.68956 35.4169 12.5001 32.6064 12.5001 29.1669C12.5001 25.7274 9.68956 22.9168 6.25005 22.9168ZM6.25005 25.0002C8.56361 25.0002 10.4167 26.8533 10.4167 29.1669C10.4167 31.4804 8.56361 33.3336 6.25005 33.3336C3.93659 33.3336 2.08335 31.4804 2.08335 29.1669C2.08335 26.8533 3.93659 25.0002 6.25005 25.0002Z" fill="#08B09C"/>
<path d="M43.75 22.9168C47.1895 22.9168 50 25.7274 50 29.1669C50 32.6064 47.1895 35.4169 43.75 35.4169C40.3106 35.4169 37.4999 32.6064 37.4999 29.1669C37.4999 25.7274 40.3106 22.9168 43.75 22.9168ZM43.75 25.0002C41.4365 25.0002 39.5833 26.8533 39.5833 29.1669C39.5833 31.4804 41.4365 33.3336 43.75 33.3336C46.0635 33.3336 47.9167 31.4804 47.9167 29.1669C47.9167 26.8533 46.0635 25.0002 43.75 25.0002Z" fill="#08B09C"/>
<path d="M18.75 37.5003V38.542V50.0004H31.2501V37.5003H18.75ZM20.8334 39.5837H29.1668V47.9171H20.8334V39.5837Z" fill="#08B09C"/>
<path opacity="0.5" fill-rule="evenodd" clip-rule="evenodd" d="M24.2636 0.305271C24.4555 0.113348 24.7146 0.00387874 24.9859 9.31191e-05C25.1251 -0.00176571 25.2633 0.0242204 25.3923 0.0766419C25.5212 0.129063 25.6382 0.206825 25.7366 0.305271L31.9765 6.54514C32.0763 6.64118 32.1557 6.75622 32.2105 6.88338C32.2653 7.01055 32.2946 7.14724 32.2959 7.28571C32.2972 7.42417 32.2705 7.56163 32.2181 7.68981C32.1657 7.818 32.0887 7.93446 31.9907 8.03238C31.8928 8.13029 31.7761 8.2076 31.6479 8.25999C31.5197 8.31237 31.3825 8.33862 31.2441 8.3373C31.1056 8.33599 30.9689 8.30717 30.8417 8.25236C30.7146 8.19755 30.5995 8.11789 30.5035 8.01813L26.042 3.55661V15.643C26.0516 22.5508 31.6321 28.1252 38.542 28.1252V30.2086C33.2434 30.2086 28.596 27.3687 26.042 23.1308V38.5418H23.9586V23.1305C21.4047 27.3685 16.7572 30.2086 11.4583 30.2086V28.1252C18.3743 28.1252 23.9584 22.5412 23.9584 15.6251H23.9586V3.55627L19.4968 8.01813C19.4008 8.11817 19.2858 8.19809 19.1585 8.25312C19.0313 8.30816 18.8943 8.33714 18.7557 8.33857C18.6171 8.34001 18.4797 8.3139 18.3513 8.26151C18.223 8.20912 18.1065 8.13168 18.0085 8.03365C17.9105 7.93562 17.833 7.81893 17.7806 7.69058C17.7283 7.56222 17.7019 7.42484 17.7033 7.28622C17.7048 7.14759 17.7337 7.01061 17.7888 6.88338C17.8438 6.75615 17.9237 6.64111 18.0238 6.54514L24.2636 0.305271Z" fill="#08B09C"/>
</svg>
