<?xml version="1.0" encoding="UTF-8"?>
<svg width="166px" height="40px" viewBox="0 0 166 40" version="1.1" xmlns="http://www.w3.org/2000/svg" xmlns:xlink="http://www.w3.org/1999/xlink">
    <title>B018E714-978A-46A6-9204-06BDC0863021</title>
    <g id="Site" stroke="none" stroke-width="1" fill="none" fill-rule="evenodd">
        <g id="00.-Home" transform="translate(-75.000000, -75.000000)">
            <g id="Logo" transform="translate(75.000000, 75.000000)">
                <g id="Rafay-Wordmark" transform="translate(47.000000, 8.000000)">
                    <polygon id="Path" fill="#08B09C" points="113.326305 0.18888965 108.409495 7.86746722 110.811739 11.7888989 118.62912 0.389683461 118.62912 0.18888965"></polygon>
                    <polygon id="Path" fill="#FFFFFF" points="107.123341 9.87619899 101.852957 1.27619211 101.186941 0.18888965 95.951361 0.18888965 95.951361 0.389683461 104.922008 13.9579483 104.922008 23.6452576 109.323882 23.6452576 109.327837 13.4738209"></polygon>
                    <path d="M11.3539082,4.30476596 C14.1223824,4.30476596 15.3563309,6.18413254 15.3563309,8.06905468 C15.3563309,9.95397683 14.1548131,11.8341371 11.3539082,11.8341371 L4.65103666,11.8341371 L4.65103666,4.30476596 L11.3539082,4.30476596 Z M19.7582049,7.9690546 C19.7582049,3.90317834 16.8568439,0.223016661 11.3539082,0.18888965 C7.6520627,0.22222301 3.95021719,0.18888965 0.249162678,0.18888965 L0.249162678,23.6452576 L4.65103666,23.6452576 L4.65103666,15.8150926 L8.8860112,15.8150926 L15.6893388,23.6452576 L20.924919,23.6452576 L20.924919,23.3436701 L13.8550269,15.3468383 C18.2901226,14.443663 19.7582049,11.1984223 19.7582049,7.9690546 Z" id="Shape" fill="#FFFFFF"></path>
                    <path d="M30.9357218,15.1127111 L35.2711524,5.11984598 L39.606583,15.1127111 L30.9357218,15.1127111 Z M32.8704897,0.18888965 L22.3985383,23.6452576 L27.1674329,23.6452576 L29.1686442,19.2285874 L41.3736605,19.2285874 L43.3416502,23.6452576 L48.1437664,23.6452576 L37.671815,0.18888965 L32.8704897,0.18888965 Z" id="Shape" fill="#FFFFFF"></path>
                    <polygon id="Path" fill="#FFFFFF" points="51.8519399 0.256350021 51.8519399 23.6452576 56.2538138 23.6452576 56.2538138 14.978584 67.9589228 14.978584 67.9589228 10.8968347 56.2538138 10.8968347 56.2538138 4.50555977 68.6257296 4.50555977 68.6257296 0.256350021"></polygon>
                    <path d="M79.8712718,15.1127111 L84.2067024,5.11984598 L88.542133,15.1127111 L79.8712718,15.1127111 Z M81.8052488,0.18888965 L71.3332973,23.6452576 L76.1021919,23.6452576 L78.1034033,19.2285874 L90.3092105,19.2285874 L92.2772002,23.6452576 L97.0793164,23.6452576 L86.607365,0.18888965 L81.8052488,0.18888965 Z" id="Shape" fill="#FFFFFF"></path>
                </g>
                <g id="Rafay-Logomark" fill="#08B09C">
                    <path d="M29.3676575,12.3733447 L25.643822,18.7874239 L33.0907482,18.7874239 L29.3676575,12.3733447 Z M14.3866672,20.8252033 L18.3614893,27.2652085 L18.3890456,27.2170603 L18.3890456,27.217801 L22.1002201,20.8252033 L14.3866672,20.8252033 Z M16.5606424,28.2333574 L12.7623302,22.0807599 L9.19117194,28.2333574 L16.5606424,28.2333574 Z M9.19117194,30.2711368 L12.9135179,36.6859567 L16.6224581,30.2711368 L9.19117194,30.2711368 Z M11.1461856,37.6985501 L7.42160531,31.2822487 L3.69702504,37.6985501 L11.1461856,37.6985501 Z M29.3765947,31.2866932 L25.643822,37.7163279 L33.0944721,37.7163279 L29.3765947,31.2866932 Z M30.555561,29.2503952 L30.5570505,29.2526175 L30.555561,29.2555804 L35.7443534,38.2296617 L36.6261577,39.7548481 L23.2843998,39.7548481 L22.9872377,39.2415143 L18.3890456,31.2874339 L13.7997908,39.2229958 L13.5033735,39.7363295 L0.157891769,39.7363295 L1.04267509,38.2118839 L11.7271039,19.8059432 L1.12310993,1.54000269 L0.238326616,0.0155570258 L24.5497591,0.0155570258 L24.8476659,0.52889077 L35.7443534,19.3014984 L36.0377916,19.8059432 L35.7443534,20.3118696 L30.555561,29.2503952 Z M25.6646755,20.8252033 L29.3780842,27.2215047 L33.0907482,20.8252033 L25.6646755,20.8252033 Z M27.6047938,28.2333574 L23.8824478,21.8207597 L20.1601018,28.2333574 L27.6047938,28.2333574 Z M23.872021,36.7015123 L27.6047938,30.2711368 L20.1548884,30.2711368 L23.872021,36.7015123 Z M21.8730661,18.7874239 L18.122419,12.3259372 L14.3717719,18.7874239 L21.8730661,18.7874239 Z M20.0141275,11.5177884 L23.7588164,17.9689047 L27.5027607,11.5177884 L20.0141275,11.5177884 Z M12.753393,17.5170525 L16.235924,11.5177884 L9.27086202,11.5177884 L12.753393,17.5170525 Z M21.7293261,2.05333643 L13.866075,2.05333643 L18.0658167,8.36519334 L21.7293261,2.05333643 Z M19.7743125,9.48000904 L27.6874629,9.48000904 L23.7305153,2.66370729 L19.7743125,9.48000904 Z M9.61941303,9.48000904 L16.3558315,9.48000904 L12.7347738,4.03778247 L9.61941303,9.48000904 Z M3.77671512,2.05333643 L7.67557089,8.76889736 L11.5193139,2.05333643 L3.77671512,2.05333643 Z" id="Shape"></path>
                </g>
            </g>
        </g>
    </g>
</svg>